<svg width="38" height="25" viewBox="0 0 38 25" fill="none" xmlns="http://www.w3.org/2000/svg">
<path d="M36.3984 15.8125V17H28.9531V15.9609L32.6797 11.8125C33.138 11.3021 33.4922 10.8698 33.7422 10.5156C33.9974 10.1562 34.1745 9.83594 34.2734 9.55469C34.3776 9.26823 34.4297 8.97656 34.4297 8.67969C34.4297 8.30469 34.3516 7.96615 34.1953 7.66406C34.0443 7.35677 33.8203 7.11198 33.5234 6.92969C33.2266 6.7474 32.8672 6.65625 32.4453 6.65625C31.9401 6.65625 31.5182 6.75521 31.1797 6.95312C30.8464 7.14583 30.5964 7.41667 30.4297 7.76562C30.263 8.11458 30.1797 8.51562 30.1797 8.96875H28.7344C28.7344 8.32812 28.875 7.74219 29.1562 7.21094C29.4375 6.67969 29.8542 6.25781 30.4062 5.94531C30.9583 5.6276 31.638 5.46875 32.4453 5.46875C33.1641 5.46875 33.7786 5.59635 34.2891 5.85156C34.7995 6.10156 35.1901 6.45573 35.4609 6.91406C35.737 7.36719 35.875 7.89844 35.875 8.50781C35.875 8.84115 35.8177 9.17969 35.7031 9.52344C35.5938 9.86198 35.4401 10.2005 35.2422 10.5391C35.0495 10.8776 34.8229 11.2109 34.5625 11.5391C34.3073 11.8672 34.0339 12.1901 33.7422 12.5078L30.6953 15.8125H36.3984Z" fill="#65665C"/>
<path d="M15.3438 12.6562H16.6562V16.6562C16.6562 17.0104 16.5208 17.3229 16.25 17.5938C16 17.8646 15.6979 18 15.3438 18C15.3438 18.1875 15.2708 18.3438 15.125 18.4688C15 18.5938 14.8438 18.6562 14.6562 18.6562H5.34375C5.15625 18.6562 4.98958 18.5938 4.84375 18.4688C4.71875 18.3438 4.65625 18.1875 4.65625 18C4.30208 18 3.98958 17.8646 3.71875 17.5938C3.46875 17.3229 3.34375 17.0104 3.34375 16.6562V12.6562H5.34375V12.1562C5.34375 11.7604 5.48958 11.4167 5.78125 11.125C6.09375 10.8125 6.44792 10.6562 6.84375 10.6562C7.26042 10.6562 7.63542 10.8229 7.96875 11.1562L8.875 12.1875C9 12.3333 9.1875 12.4896 9.4375 12.6562H14V7.21875C14 7.07292 13.9479 6.94792 13.8438 6.84375C13.7396 6.71875 13.6042 6.65625 13.4375 6.65625C13.2917 6.65625 13.1667 6.70833 13.0625 6.8125L12.2188 7.65625C12.2604 7.82292 12.2812 7.9375 12.2812 8C12.2812 8.22917 12.2083 8.46875 12.0625 8.71875L10.2188 6.875C10.4688 6.72917 10.7083 6.65625 10.9375 6.65625C11.0417 6.65625 11.1562 6.67708 11.2812 6.71875L12.125 5.875C12.4792 5.52083 12.9167 5.34375 13.4375 5.34375C13.9583 5.34375 14.4062 5.53125 14.7812 5.90625C15.1562 6.26042 15.3438 6.69792 15.3438 7.21875V12.6562ZM5.71875 9.625C5.46875 9.35417 5.34375 9.03125 5.34375 8.65625C5.34375 8.28125 5.46875 7.96875 5.71875 7.71875C5.96875 7.46875 6.28125 7.34375 6.65625 7.34375C7.03125 7.34375 7.34375 7.46875 7.59375 7.71875C7.86458 7.96875 8 8.28125 8 8.65625C8 9.03125 7.86458 9.35417 7.59375 9.625C7.34375 9.875 7.03125 10 6.65625 10C6.28125 10 5.96875 9.875 5.71875 9.625Z" fill="#65665C"/>
</svg>
