<svg width="38" height="25" viewBox="0 0 38 25" fill="none" xmlns="http://www.w3.org/2000/svg">
<path d="M36.3984 15.8125V17H28.9531V15.9609L32.6797 11.8125C33.138 11.3021 33.4922 10.8698 33.7422 10.5156C33.9974 10.1562 34.1745 9.83594 34.2734 9.55469C34.3776 9.26823 34.4297 8.97656 34.4297 8.67969C34.4297 8.30469 34.3516 7.96615 34.1953 7.66406C34.0443 7.35677 33.8203 7.11198 33.5234 6.92969C33.2266 6.7474 32.8672 6.65625 32.4453 6.65625C31.9401 6.65625 31.5182 6.75521 31.1797 6.95312C30.8464 7.14583 30.5964 7.41667 30.4297 7.76562C30.263 8.11458 30.1797 8.51562 30.1797 8.96875H28.7344C28.7344 8.32812 28.875 7.74219 29.1562 7.21094C29.4375 6.67969 29.8542 6.25781 30.4062 5.94531C30.9583 5.6276 31.638 5.46875 32.4453 5.46875C33.1641 5.46875 33.7786 5.59635 34.2891 5.85156C34.7995 6.10156 35.1901 6.45573 35.4609 6.91406C35.737 7.36719 35.875 7.89844 35.875 8.50781C35.875 8.84115 35.8177 9.17969 35.7031 9.52344C35.5938 9.86198 35.4401 10.2005 35.2422 10.5391C35.0495 10.8776 34.8229 11.2109 34.5625 11.5391C34.3073 11.8672 34.0339 12.1901 33.7422 12.5078L30.6953 15.8125H36.3984Z" fill="#65665C"/>
<path d="M16 11.1875V9.34375C16 8.96875 15.9062 8.63542 15.7188 8.34375C15.5521 8.03125 15.3125 7.79167 15 7.625C14.7083 7.4375 14.375 7.34375 14 7.34375H11.3438C11.0729 7.34375 10.8229 7.39583 10.5938 7.5C10.3646 7.58333 10.1667 7.69792 10 7.84375C9.83333 7.69792 9.63542 7.58333 9.40625 7.5C9.17708 7.39583 8.92708 7.34375 8.65625 7.34375H6C5.625 7.34375 5.28125 7.4375 4.96875 7.625C4.67708 7.79167 4.4375 8.03125 4.25 8.34375C4.08333 8.63542 4 8.96875 4 9.34375V11.1875C3.79167 11.375 3.625 11.5938 3.5 11.8438C3.39583 12.0938 3.34375 12.3646 3.34375 12.6562V16.6562H4.65625V15.3438H15.3438V16.6562H16.6562V12.6562C16.6562 12.3646 16.5938 12.0938 16.4688 11.8438C16.3646 11.5938 16.2083 11.375 16 11.1875ZM11.3438 8.65625H14C14.1875 8.65625 14.3438 8.72917 14.4688 8.875C14.5938 9 14.6562 9.15625 14.6562 9.34375V10.6562H10.6562V9.34375C10.6562 9.15625 10.7188 9 10.8438 8.875C10.9896 8.72917 11.1562 8.65625 11.3438 8.65625ZM5.34375 9.34375C5.34375 9.15625 5.40625 9 5.53125 8.875C5.65625 8.72917 5.8125 8.65625 6 8.65625H8.65625C8.84375 8.65625 9 8.72917 9.125 8.875C9.27083 9 9.34375 9.15625 9.34375 9.34375V10.6562H5.34375V9.34375ZM4.65625 14V12.6562C4.65625 12.4896 4.71875 12.3438 4.84375 12.2188C4.98958 12.0729 5.15625 12 5.34375 12H14.6562C14.8438 12 15 12.0729 15.125 12.2188C15.2708 12.3438 15.3438 12.4896 15.3438 12.6562V14H4.65625Z" fill="#65665C"/>
</svg>
