<svg width="93" height="25" viewBox="0 0 93 25" fill="none" xmlns="http://www.w3.org/2000/svg">
<path d="M36.1172 13.9219C36.1172 14.6146 35.9557 15.2031 35.6328 15.6875C35.3151 16.1667 34.8828 16.5312 34.3359 16.7812C33.7943 17.0312 33.1823 17.1562 32.5 17.1562C31.8177 17.1562 31.2031 17.0312 30.6562 16.7812C30.1094 16.5312 29.6771 16.1667 29.3594 15.6875C29.0417 15.2031 28.8828 14.6146 28.8828 13.9219C28.8828 13.4688 28.9688 13.0547 29.1406 12.6797C29.3177 12.2995 29.5651 11.9688 29.8828 11.6875C30.2057 11.4062 30.5859 11.1901 31.0234 11.0391C31.4661 10.8828 31.9531 10.8047 32.4844 10.8047C33.1823 10.8047 33.8047 10.9401 34.3516 11.2109C34.8984 11.4766 35.3281 11.8438 35.6406 12.3125C35.9583 12.7812 36.1172 13.3177 36.1172 13.9219ZM34.6641 13.8906C34.6641 13.4688 34.5729 13.0964 34.3906 12.7734C34.2083 12.4453 33.9531 12.1901 33.625 12.0078C33.2969 11.8255 32.9167 11.7344 32.4844 11.7344C32.0417 11.7344 31.6589 11.8255 31.3359 12.0078C31.0182 12.1901 30.7708 12.4453 30.5938 12.7734C30.4167 13.0964 30.3281 13.4688 30.3281 13.8906C30.3281 14.3281 30.4141 14.7031 30.5859 15.0156C30.763 15.3229 31.013 15.5599 31.3359 15.7266C31.6641 15.888 32.0521 15.9688 32.5 15.9688C32.9479 15.9688 33.3333 15.888 33.6562 15.7266C33.9792 15.5599 34.2266 15.3229 34.3984 15.0156C34.5755 14.7031 34.6641 14.3281 34.6641 13.8906ZM35.8516 8.58594C35.8516 9.13802 35.7057 9.63542 35.4141 10.0781C35.1224 10.5208 34.724 10.8698 34.2188 11.125C33.7135 11.3802 33.1406 11.5078 32.5 11.5078C31.849 11.5078 31.2682 11.3802 30.7578 11.125C30.2526 10.8698 29.8568 10.5208 29.5703 10.0781C29.2839 9.63542 29.1406 9.13802 29.1406 8.58594C29.1406 7.92448 29.2839 7.36198 29.5703 6.89844C29.862 6.4349 30.2604 6.08073 30.7656 5.83594C31.2708 5.59115 31.8464 5.46875 32.4922 5.46875C33.1432 5.46875 33.7214 5.59115 34.2266 5.83594C34.7318 6.08073 35.1276 6.4349 35.4141 6.89844C35.7057 7.36198 35.8516 7.92448 35.8516 8.58594ZM34.4062 8.60938C34.4062 8.22917 34.3255 7.89323 34.1641 7.60156C34.0026 7.3099 33.7786 7.08073 33.4922 6.91406C33.2057 6.74219 32.8724 6.65625 32.4922 6.65625C32.112 6.65625 31.7786 6.73698 31.4922 6.89844C31.2109 7.05469 30.9896 7.27865 30.8281 7.57031C30.6719 7.86198 30.5938 8.20833 30.5938 8.60938C30.5938 9 30.6719 9.34115 30.8281 9.63281C30.9896 9.92448 31.2135 10.151 31.5 10.3125C31.7865 10.474 32.1198 10.5547 32.5 10.5547C32.8802 10.5547 33.2109 10.474 33.4922 10.3125C33.7786 10.151 34.0026 9.92448 34.1641 9.63281C34.3255 9.34115 34.4062 9 34.4062 8.60938ZM45.6328 13.1719V14.3594H37.4141V13.5078L42.5078 5.625H43.6875L42.4219 7.90625L39.0547 13.1719H45.6328ZM44.0469 5.625V17H42.6016V5.625H44.0469ZM54.0859 10.4062V12.1406C54.0859 13.0729 54.0026 13.8594 53.8359 14.5C53.6693 15.1406 53.4297 15.6562 53.1172 16.0469C52.8047 16.4375 52.4271 16.7214 51.9844 16.8984C51.5469 17.0703 51.0521 17.1562 50.5 17.1562C50.0625 17.1562 49.6589 17.1016 49.2891 16.9922C48.9193 16.8828 48.5859 16.7083 48.2891 16.4688C47.9974 16.224 47.7474 15.9062 47.5391 15.5156C47.3307 15.125 47.1719 14.651 47.0625 14.0938C46.9531 13.5365 46.8984 12.8854 46.8984 12.1406V10.4062C46.8984 9.47396 46.9818 8.69271 47.1484 8.0625C47.3203 7.43229 47.5625 6.92708 47.875 6.54688C48.1875 6.16146 48.5625 5.88542 49 5.71875C49.4427 5.55208 49.9375 5.46875 50.4844 5.46875C50.9271 5.46875 51.3333 5.52344 51.7031 5.63281C52.0781 5.73698 52.4115 5.90625 52.7031 6.14062C52.9948 6.36979 53.2422 6.67708 53.4453 7.0625C53.6536 7.44271 53.8125 7.90885 53.9219 8.46094C54.0312 9.01302 54.0859 9.66146 54.0859 10.4062ZM52.6328 12.375V10.1641C52.6328 9.65365 52.6016 9.20573 52.5391 8.82031C52.4818 8.42969 52.3958 8.09635 52.2812 7.82031C52.1667 7.54427 52.0208 7.32031 51.8438 7.14844C51.6719 6.97656 51.4714 6.85156 51.2422 6.77344C51.0182 6.6901 50.7656 6.64844 50.4844 6.64844C50.1406 6.64844 49.8359 6.71354 49.5703 6.84375C49.3047 6.96875 49.0807 7.16927 48.8984 7.44531C48.7214 7.72135 48.5859 8.08333 48.4922 8.53125C48.3984 8.97917 48.3516 9.52344 48.3516 10.1641V12.375C48.3516 12.8854 48.3802 13.3359 48.4375 13.7266C48.5 14.1172 48.5911 14.4557 48.7109 14.7422C48.8307 15.0234 48.9766 15.2552 49.1484 15.4375C49.3203 15.6198 49.5182 15.7552 49.7422 15.8438C49.9714 15.9271 50.224 15.9688 50.5 15.9688C50.8542 15.9688 51.1641 15.901 51.4297 15.7656C51.6953 15.6302 51.9167 15.4193 52.0938 15.1328C52.276 14.8411 52.4115 14.4688 52.5 14.0156C52.5885 13.5573 52.6328 13.0104 52.6328 12.375ZM64.9922 14.7578C64.9922 14.5495 64.9453 14.3568 64.8516 14.1797C64.763 13.9974 64.5781 13.8333 64.2969 13.6875C64.0208 13.5365 63.6042 13.4062 63.0469 13.2969C62.5781 13.1979 62.1536 13.0807 61.7734 12.9453C61.3984 12.8099 61.0781 12.6458 60.8125 12.4531C60.5521 12.2604 60.3516 12.0339 60.2109 11.7734C60.0703 11.513 60 11.2083 60 10.8594C60 10.526 60.0729 10.2109 60.2188 9.91406C60.3698 9.61719 60.5807 9.35417 60.8516 9.125C61.1276 8.89583 61.4583 8.71615 61.8438 8.58594C62.2292 8.45573 62.6589 8.39062 63.1328 8.39062C63.8099 8.39062 64.388 8.51042 64.8672 8.75C65.3464 8.98958 65.7135 9.3099 65.9688 9.71094C66.224 10.1068 66.3516 10.5469 66.3516 11.0312H64.9062C64.9062 10.7969 64.8359 10.5703 64.6953 10.3516C64.5599 10.1276 64.3594 9.94271 64.0938 9.79688C63.8333 9.65104 63.513 9.57812 63.1328 9.57812C62.7318 9.57812 62.4062 9.64062 62.1562 9.76562C61.9115 9.88542 61.7318 10.0391 61.6172 10.2266C61.5078 10.4141 61.4531 10.612 61.4531 10.8203C61.4531 10.9766 61.4792 11.1172 61.5312 11.2422C61.5885 11.362 61.6875 11.474 61.8281 11.5781C61.9688 11.6771 62.1667 11.7708 62.4219 11.8594C62.6771 11.9479 63.0026 12.0365 63.3984 12.125C64.0911 12.2812 64.6615 12.4688 65.1094 12.6875C65.5573 12.9062 65.8906 13.1745 66.1094 13.4922C66.3281 13.8099 66.4375 14.1953 66.4375 14.6484C66.4375 15.0182 66.3594 15.3568 66.2031 15.6641C66.0521 15.9714 65.8307 16.237 65.5391 16.4609C65.2526 16.6797 64.9089 16.8516 64.5078 16.9766C64.112 17.0964 63.6667 17.1562 63.1719 17.1562C62.4271 17.1562 61.7969 17.0234 61.2812 16.7578C60.7656 16.4922 60.375 16.1484 60.1094 15.7266C59.8438 15.3047 59.7109 14.8594 59.7109 14.3906H61.1641C61.1849 14.7865 61.2995 15.1016 61.5078 15.3359C61.7161 15.5651 61.9714 15.7292 62.2734 15.8281C62.5755 15.9219 62.875 15.9688 63.1719 15.9688C63.5677 15.9688 63.8984 15.9167 64.1641 15.8125C64.4349 15.7083 64.6406 15.5651 64.7812 15.3828C64.9219 15.2005 64.9922 14.9922 64.9922 14.7578ZM73.6562 20.25V10.1719L73.7812 8.54688H75.1094V20.25H73.6562ZM67.9766 12.8672V12.7031C67.9766 12.0573 68.0521 11.4714 68.2031 10.9453C68.3542 10.4141 68.5755 9.95833 68.8672 9.57812C69.1589 9.19792 69.5104 8.90625 69.9219 8.70312C70.3385 8.49479 70.8125 8.39062 71.3438 8.39062C71.875 8.39062 72.3411 8.48438 72.7422 8.67188C73.1484 8.85417 73.4922 9.1224 73.7734 9.47656C74.0599 9.82552 74.2865 10.2474 74.4531 10.7422C74.6198 11.237 74.7344 11.7969 74.7969 12.4219V13.1406C74.7396 13.7604 74.6276 14.3177 74.4609 14.8125C74.2943 15.3073 74.0677 15.7292 73.7812 16.0781C73.5 16.4271 73.1536 16.6953 72.7422 16.8828C72.3359 17.0651 71.8646 17.1562 71.3281 17.1562C70.8073 17.1562 70.3385 17.0495 69.9219 16.8359C69.5104 16.6224 69.1589 16.3229 68.8672 15.9375C68.5807 15.5521 68.3594 15.099 68.2031 14.5781C68.0521 14.0521 67.9766 13.4818 67.9766 12.8672ZM69.4297 12.7031V12.8672C69.4297 13.2891 69.474 13.6875 69.5625 14.0625C69.651 14.4323 69.7865 14.7604 69.9688 15.0469C70.1562 15.3333 70.3906 15.5599 70.6719 15.7266C70.9583 15.888 71.2969 15.9688 71.6875 15.9688C72.1667 15.9688 72.5651 15.8646 72.8828 15.6562C73.2057 15.4479 73.4635 15.1745 73.6562 14.8359C73.849 14.4922 73.9974 14.125 74.1016 13.7344V11.8516C74.0443 11.5651 73.9531 11.2865 73.8281 11.0156C73.7083 10.7448 73.5521 10.5026 73.3594 10.2891C73.1667 10.0703 72.9323 9.89844 72.6562 9.77344C72.3854 9.64323 72.0677 9.57812 71.7031 9.57812C71.3073 9.57812 70.9661 9.66146 70.6797 9.82812C70.3932 9.99479 70.1562 10.224 69.9688 10.5156C69.7865 10.8021 69.651 11.1328 69.5625 11.5078C69.474 11.8828 69.4297 12.2812 69.4297 12.7031ZM79.5859 17H78.1406V7.65625C78.1406 7.04688 78.25 6.53385 78.4688 6.11719C78.6927 5.69531 79.013 5.3776 79.4297 5.16406C79.8464 4.94531 80.3411 4.83594 80.9141 4.83594C81.0807 4.83594 81.2474 4.84635 81.4141 4.86719C81.5859 4.88802 81.7526 4.91927 81.9141 4.96094L81.8359 6.14062C81.7266 6.11458 81.6016 6.09635 81.4609 6.08594C81.3255 6.07552 81.1901 6.07031 81.0547 6.07031C80.7474 6.07031 80.4818 6.13281 80.2578 6.25781C80.0391 6.3776 79.8724 6.55469 79.7578 6.78906C79.6432 7.02344 79.5859 7.3125 79.5859 7.65625V17ZM81.3828 8.54688V9.65625H76.8047V8.54688H81.3828ZM86.5312 8.54688V9.65625H81.9609V8.54688H86.5312ZM83.5078 6.49219H84.9531V14.9062C84.9531 15.1927 84.9974 15.4089 85.0859 15.5547C85.1745 15.7005 85.2891 15.7969 85.4297 15.8438C85.5703 15.8906 85.7214 15.9141 85.8828 15.9141C86.0026 15.9141 86.1276 15.9036 86.2578 15.8828C86.3932 15.8568 86.4948 15.8359 86.5625 15.8203L86.5703 17C86.4557 17.0365 86.3047 17.0703 86.1172 17.1016C85.9349 17.138 85.7135 17.1562 85.4531 17.1562C85.099 17.1562 84.7734 17.0859 84.4766 16.9453C84.1797 16.8047 83.9427 16.5703 83.7656 16.2422C83.5938 15.9089 83.5078 15.4609 83.5078 14.8984V6.49219Z" fill="#65665C"/>
<path d="M6.65625 15.3438H10.5L6.65625 11.5V15.3438ZM13.7812 15.7812L15.3438 17.3438H6C5.64583 17.3438 5.33333 17.2083 5.0625 16.9375C4.79167 16.6667 4.65625 16.3542 4.65625 16V6.65625L6.21875 8.21875L5.53125 8.9375L6 9.40625L6.6875 8.6875L8 10L7.28125 10.6875L7.75 11.1875L8.46875 10.4688L9.78125 11.7812L9.0625 12.4688L9.53125 12.9375L10.25 12.25L11.5312 13.5312L10.8125 14.25L11.3125 14.7188L12 14L13.3125 15.3125L12.5938 16L13.0625 16.4688L13.7812 15.7812Z" fill="#65665C"/>
</svg>
